<?xml version="1.0" standalone="no"?>
<!DOCTYPE svg PUBLIC "-//W3C//DTD SVG 20010904//EN"
 "http://www.w3.org/TR/2001/REC-SVG-20010904/DTD/svg10.dtd">
<svg version="1.0" xmlns="http://www.w3.org/2000/svg"
 width="196.000000pt" height="196.000000pt" viewBox="0 0 196.000000 196.000000"
 preserveAspectRatio="xMidYMid meet">
<metadata>
Created by potrace 1.14, written by Peter Selinger 2001-2017
</metadata>
<g transform="translate(0.000000,196.000000) scale(0.100000,-0.100000)"
fill="#000000" stroke="none">
<path d="M391 1631 c-95 -36 -156 -96 -192 -191 -17 -45 -19 -78 -19 -343 0
-332 6 -370 66 -437 20 -22 61 -52 92 -67 54 -26 65 -28 192 -28 116 0 145 3
205 24 71 24 165 67 165 76 0 2 -12 30 -27 60 -20 40 -32 55 -43 51 -8 -3 -55
-20 -105 -38 -75 -27 -105 -32 -180 -32 -78 -1 -96 2 -134 24 -60 34 -81 77
-81 166 l0 71 58 7 c31 3 156 13 277 21 121 9 235 18 253 21 l32 5 0 159 c0
231 -19 299 -102 377 -69 63 -140 85 -283 90 -101 3 -128 0 -174 -16z m262
-132 c44 -12 102 -59 124 -103 22 -43 32 -233 12 -241 -17 -6 -364 -35 -420
-35 l-39 0 0 109 c0 60 3 123 7 142 9 44 79 113 129 127 52 13 140 14 187 1z"/>
<path d="M1360 1633 c-189 -29 -275 -95 -322 -246 -23 -71 -23 -77 -23 -672
l0 -599 43 -12 42 -13 0 280 c0 305 0 306 55 249 51 -53 124 -74 255 -74 132
-1 186 14 262 69 34 25 55 52 80 102 l33 68 0 295 0 295 -26 55 c-49 104 -112
158 -215 183 -68 17 -148 26 -184 20z m112 -94 c98 -21 154 -66 197 -159 26
-55 26 -57 26 -305 0 -277 -4 -302 -61 -365 -51 -56 -122 -83 -219 -84 -108 0
-175 23 -235 83 -65 66 -70 89 -70 365 0 209 2 242 19 286 37 98 97 152 195
176 66 16 84 16 148 3z"/>
</g>
</svg>
